<svg xmlns="http://www.w3.org/2000/svg" width="120" height="24" viewBox="0 0 120 24">
    <defs>
        <style>
            .cls-2{fill:#fff}
        </style>
    </defs>
    <g id="pay_wADA_120x24" transform="translate(0 0.168)">
        <rect id="Rectangle_505" width="120" height="24" fill="#081339" rx="4" transform="translate(0 -0.168)"/>
        <g id="Group_5893" transform="translate(24.408 4.658)">
            <g id="Group_5892" transform="translate(0 2.008)">
                <path id="Path_4115" d="M48.816 14.45a10.869 10.869 0 0 1 2-.15 3.353 3.353 0 0 1 2.25.65 2.147 2.147 0 0 1 .7 1.7 2.479 2.479 0 0 1-.6 1.75 3.285 3.285 0 0 1-2.45.9 4.058 4.058 0 0 1-.85-.05v3.2h-1.05zm1.05 3.95a3.814 3.814 0 0 0 .85.05c1.25 0 2.05-.6 2.05-1.75 0-1.1-.75-1.6-1.9-1.6-.45 0-.8.05-1 .05z" class="cls-2" transform="translate(-48.816 -13.9)"/>
                <path id="Path_4116" d="M64.466 23.25a6.149 6.149 0 0 0 .1 1.4h-.95l-.1-.75a2.154 2.154 0 0 1-1.8.85 1.7 1.7 0 0 1-1.8-1.65c0-1.4 1.25-2.15 3.5-2.15v-.15a1.2 1.2 0 0 0-1.3-1.35 2.534 2.534 0 0 0-1.5.45l-.25-.7a3.83 3.83 0 0 1 1.9-.5c1.8 0 2.2 1.2 2.2 2.4zm-1-1.55c-1.15-.05-2.45.15-2.45 1.3a.918.918 0 0 0 1 1 1.465 1.465 0 0 0 1.4-.95c0-.1.05-.25.05-.35z" class="cls-2" transform="translate(-54.366 -16.1)"/>
                <path id="Path_4117" d="M71.866 19l1.25 3.4a6.353 6.353 0 0 1 .35 1.2c.1-.35.25-.8.35-1.2l1.15-3.4h1.1l-1.6 4.15c-.75 2-1.25 3-2 3.65a3.028 3.028 0 0 1-1.3.65l-.25-.9a3.508 3.508 0 0 0 .95-.5 3.414 3.414 0 0 0 .9-1.2.845.845 0 0 0 .1-.25.494.494 0 0 0-.1-.3l-2.05-5.3z" class="cls-2" transform="translate(-59.766 -16.25)"/>
                <path id="Path_4118" d="M88.466 19l.8 2.95c.2.65.3 1.25.45 1.85h.05a14.664 14.664 0 0 1 .5-1.85l.9-2.95h.9l.9 2.9a15.323 15.323 0 0 1 .5 1.9h.05a17.089 17.089 0 0 1 .45-1.9l.85-2.9h1.05l-1.9 5.8h-.95l-.9-2.75c-.2-.65-.35-1.2-.5-1.9a10.546 10.546 0 0 1-.55 1.9l-.95 2.75h-.95l-1.75-5.8z" class="cls-2" transform="translate(-68.116 -16.25)"/>
                <path id="Path_4119" d="M107.416 15.05a.65.65 0 1 1-.65-.65.63.63 0 0 1 .65.65zm-1.2 7.45v-5.8h1.05v5.8z" class="cls-2" transform="translate(-77.466 -13.95)"/>
                <path id="Path_4120" d="M112.566 15.6v1.7h1.5v.8h-1.5v3.15c0 .7.2 1.15.8 1.15.3 0 .45-.05.6-.05l.05.8a2.35 2.35 0 0 1-.95.15 1.435 1.435 0 0 1-1.15-.45 2.235 2.235 0 0 1-.4-1.5V18.2h-.9v-.9h.9v-1.4z" class="cls-2" transform="translate(-79.716 -14.55)"/>
                <path id="Path_4121" d="M119.916 13.5h1.05v3.6a2.678 2.678 0 0 1 .75-.75 2.016 2.016 0 0 1 1.1-.3c.8 0 2 .45 2 2.45v3.45h-1.05V18.6c0-.95-.35-1.75-1.35-1.75a1.517 1.517 0 0 0-1.4 1.05 1.479 1.479 0 0 0-.1.5v3.5h-1z" class="cls-2" transform="translate(-84.366 -13.5)"/>
            </g>
            <path id="Path_3944" fill="#fff" fill-rule="evenodd" d="M141.832 17.038h2.352l-.26-.67h-1.839zm1.174-3.061l-.663 1.747h1.345zm2.83 3.061a.32.32 0 1 1-.013.639h-.72l.885 2.244a.316.316 0 0 1-.171.413.519.519 0 0 1-.118.018.3.3 0 0 1-.293-.2l-.975-2.479h-2.856l-.939 2.455a.312.312 0 0 1-.294.2.232.232 0 0 1-.109-.018.323.323 0 0 1-.18-.415l.85-2.225h-.725a.316.316 0 0 1-.312-.32v-.013a.332.332 0 0 1 .338-.3h.949l.253-.667h-.619a.316.316 0 0 1-.311-.321v-.011a.334.334 0 0 1 .338-.3h.85l1.038-2.762a.326.326 0 0 1 .294-.2.315.315 0 0 1 .293.2l1.084 2.759h.866a.315.315 0 0 1 .312.319v.015a.333.333 0 0 1-.339.3h-.592l.26.671zm14.339 2.162l1.513-4h-.816l-.887 2.458L159 15.2h-.82l1.419 3.531-.13.333a.792.792 0 0 1-.764.629 1.829 1.829 0 0 1-.386-.038v.594a2.178 2.178 0 0 0 .486.054 1.435 1.435 0 0 0 1.375-1.1m-2.381-2.77v-.076a1.149 1.149 0 0 0-.346-.923 1.533 1.533 0 0 0-1.018-.295 2.9 2.9 0 0 0-.646.078 2.621 2.621 0 0 0-.63.228l.244.537a3.912 3.912 0 0 1 .48-.189 1.7 1.7 0 0 1 .52-.08.644.644 0 0 1 .49.167.714.714 0 0 1 .159.5v.194l-.61.02a2.345 2.345 0 0 0-1.238.3.932.932 0 0 0-.4.823 1.051 1.051 0 0 0 .293.8 1.128 1.128 0 0 0 .814.281 1.625 1.625 0 0 0 .664-.116 1.4 1.4 0 0 0 .483-.4v.512h.749v-2.365zm-3.76.167a1.362 1.362 0 0 0 .48-1.121 1.281 1.281 0 0 0-.437-1.054 2.035 2.035 0 0 0-1.308-.358h-1.345v4.668h.765v-1.751h.486a2.116 2.116 0 0 0 1.366-.389m-11.024 6.8a6.62 6.62 0 1 0-.011 0h.011m13.268-13.91a7.217 7.217 0 1 1-6.618 10.12 7.217 7.217 0 1 1-.034-5.729 7.229 7.229 0 0 1 6.652-4.391m-2.8 5.415a.725.725 0 0 1 .247.6.746.746 0 0 1-.275.639 1.46 1.46 0 0 1-.863.2h-.4v-1.634h.531a1.216 1.216 0 0 1 .768.2m2.332 2.343a1.562 1.562 0 0 1 .773-.177l.454-.019v.306a.825.825 0 0 1-.257.642.93.93 0 0 1-.658.219.6.6 0 0 1-.423-.129.473.473 0 0 1-.14-.366.538.538 0 0 1 .242-.483" transform="translate(-92.313 -9.485)"/>
        </g>
    </g>
</svg>
