<svg xmlns="http://www.w3.org/2000/svg" width="91.752" height="48.023" viewBox="0 0 91.752 48.023">
    <g>
        <path fill="#0033ad" fill-rule="evenodd" d="M19.99 24.994h7.784l-.867-2.219h-6.08zm3.885-10.129l-2.2 5.781h4.455zm9.367 10.129a1.06 1.06 0 1 1-.045 2.113h-2.376l2.929 7.426a1.048 1.048 0 0 1-.568 1.373 1.685 1.685 0 0 1-.388.061 1 1 0 0 1-.971-.663l-3.229-8.213h-9.456l-3.107 8.122a1.032 1.032 0 0 1-.972.663.749.749 0 0 1-.359-.061 1.067 1.067 0 0 1-.6-1.373l2.81-7.366h-2.404a1.044 1.044 0 0 1-1.03-1.1 1.1 1.1 0 0 1 1.12-1.01h3.138l.836-2.2h-2.047a1.045 1.045 0 0 1-1.031-1.1 1.1 1.1 0 0 1 1.121-1.013h2.81l3.436-9.116a1.077 1.077 0 0 1 .972-.665 1.044 1.044 0 0 1 .971.665l3.584 9.132h2.871a1.043 1.043 0 0 1 1.03 1.1 1.1 1.1 0 0 1-1.119 1.012h-1.959L30.075 25zm47.46 7.16l5.005-13.243H83l-2.934 8.136-3.266-8.135h-2.71l4.7 11.689-.434 1.1a2.621 2.621 0 0 1-2.529 2.081 5.957 5.957 0 0 1-1.281-.125v1.965a7.167 7.167 0 0 0 1.609.179q3.186 0 4.552-3.646m-7.882-9.175v-.253a3.8 3.8 0 0 0-1.137-3.055 5.07 5.07 0 0 0-3.371-.972 9.593 9.593 0 0 0-2.139.259 8.7 8.7 0 0 0-2.085.755l.807 1.776a12.805 12.805 0 0 1 1.587-.624 5.6 5.6 0 0 1 1.726-.265 2.132 2.132 0 0 1 1.623.555 2.355 2.355 0 0 1 .525 1.676v.624l-2.021.062a7.762 7.762 0 0 0-4.1 1.005 3.086 3.086 0 0 0-1.34 2.727 3.475 3.475 0 0 0 .969 2.632 3.725 3.725 0 0 0 2.693.93 5.364 5.364 0 0 0 2.2-.386 4.617 4.617 0 0 0 1.6-1.325v1.694h2.466V22.98zm-12.432.55a4.5 4.5 0 0 0 1.587-3.71 4.242 4.242 0 0 0-1.444-3.488 6.743 6.743 0 0 0-4.344-1.183h-4.458V30.6h2.531v-5.782h1.608a7 7 0 0 0 4.519-1.289M23.919 46.03A21.89 21.89 0 1 0 2 24.139 21.932 21.932 0 0 0 23.919 46.03M67.834 0a23.884 23.884 0 1 1-21.9 33.492 23.887 23.887 0 1 1-.112-18.957A23.925 23.925 0 0 1 67.834 0m-9.272 17.917a2.4 2.4 0 0 1 .815 1.987 2.464 2.464 0 0 1-.91 2.115 4.822 4.822 0 0 1-2.858.675h-1.344v-5.432h1.757a4.026 4.026 0 0 1 2.54.655m7.718 7.753a5.176 5.176 0 0 1 2.557-.587l1.5-.062v1.014a2.73 2.73 0 0 1-.821 2.118 3.082 3.082 0 0 1-2.175.756 2 2 0 0 1-1.4-.428 1.565 1.565 0 0 1-.467-1.21 1.783 1.783 0 0 1 .8-1.6" transform="translate(-80 -20.146) translate(80 20.146)"/>
    </g>
</svg>
